<svg width="54" height="181" viewBox="0 0 54 181" fill="none" xmlns="http://www.w3.org/2000/svg">
<g id="Component 22">
<path id="Vector" d="M53.4214 25.8018C49.7281 23.0206 45.7354 21.614 41.5561 21.614H41.0124C40.6445 21.614 40.2807 21.6381 39.9182 21.6596C40.2579 21.3576 40.5895 21.0489 40.9144 20.72C43.9834 17.7389 45.8817 13.8557 46.5342 9.17658C46.5669 8.94669 46.5457 8.71233 46.4722 8.49205C46.3987 8.27177 46.2749 8.07161 46.1107 7.90741C45.9465 7.74321 45.7463 7.61947 45.526 7.54598C45.3056 7.47249 45.0712 7.45127 44.8413 7.48399C40.1639 8.14439 36.28 10.0343 33.2956 13.1054C32.968 13.4235 32.6605 13.7564 32.3558 14.096C32.3826 13.6436 32.4014 13.1899 32.3947 12.7336C32.4578 8.45445 31.0522 4.37264 28.206 0.596863C28.0664 0.411485 27.8856 0.261074 27.6779 0.157495C27.4702 0.0539153 27.2413 0 27.0092 0C26.7771 0 26.5481 0.0539153 26.3404 0.157495C26.1327 0.261074 25.9519 0.411485 25.8123 0.596863C22.9715 4.3713 21.5632 8.45445 21.625 12.7336C21.6183 13.1899 21.6371 13.6423 21.6626 14.096C21.3632 13.7577 21.0544 13.4248 20.7228 13.1054C17.7424 10.0356 13.8598 8.13902 9.17707 7.48399C8.94718 7.45156 8.71289 7.47298 8.4927 7.54657C8.27251 7.62016 8.07244 7.74391 7.90827 7.90804C7.7441 8.07218 7.62033 8.27221 7.54673 8.49236C7.47312 8.7125 7.4517 8.94674 7.48414 9.17658C8.14466 13.8544 10.0349 17.7375 13.1053 20.72C13.4248 21.0502 13.7605 21.3589 14.1015 21.6596C13.7376 21.6395 13.3725 21.614 13.006 21.614H12.4595C8.2816 21.614 4.28893 23.022 0.596981 25.8031C0.411566 25.9427 0.261126 26.1235 0.157526 26.3312C0.0539261 26.5388 0 26.7677 0 26.9998C0 27.2318 0.0539261 27.4607 0.157526 27.6684C0.261126 27.876 0.411566 28.0568 0.596981 28.1964C4.29027 30.9762 8.2816 32.3842 12.4622 32.3842H12.7307C12.822 32.3842 12.9214 32.3842 12.9992 32.3842C13.3684 32.3842 13.7323 32.3587 14.0988 32.3386C13.7578 32.6406 13.4275 32.9507 13.1026 33.2782C10.0309 36.258 8.13527 40.1425 7.48011 44.8216C7.45067 45.0333 7.46678 45.2488 7.52736 45.4537C7.58795 45.6587 7.69162 45.8483 7.83144 46.01C7.97125 46.1716 8.14399 46.3015 8.33808 46.391C8.53218 46.4805 8.74315 46.5276 8.95689 46.529C9.02746 46.5289 9.09792 46.5235 9.16767 46.5129C13.8464 45.8538 17.7303 43.9626 20.7134 40.8942C21.0423 40.5761 21.3498 40.2405 21.6532 39.9022C21.6263 40.3559 21.6075 40.8083 21.6142 41.266C21.5525 45.5438 22.9568 49.6256 25.8029 53.4013C25.9422 53.5872 26.1229 53.7381 26.3306 53.842C26.5384 53.9459 26.7675 54 26.9998 54C27.2321 54 27.4612 53.9459 27.6689 53.842C27.8767 53.7381 28.0573 53.5872 28.1966 53.4013C31.0374 49.6256 32.4471 45.5438 32.3853 41.266C32.392 40.8096 32.3732 40.3559 32.345 39.9036C32.6471 40.2418 32.9532 40.5747 33.2848 40.8942C36.2652 43.9626 40.1492 45.8525 44.8305 46.5129C44.9003 46.5236 44.9708 46.529 45.0413 46.529C45.2552 46.528 45.4664 46.4813 45.6607 46.3919C45.855 46.3025 46.0279 46.1726 46.1678 46.0109C46.3077 45.8491 46.4114 45.6593 46.4718 45.4542C46.5322 45.249 46.548 45.0334 46.5181 44.8216C45.8603 40.1425 43.9673 36.2594 40.8969 33.2782C40.5774 32.948 40.2404 32.6379 39.9008 32.3386C40.266 32.3587 40.6298 32.3842 40.9976 32.3842H41.5346C45.7139 32.3842 49.7079 30.9762 53.4012 28.1964C53.5871 28.0571 53.738 27.8765 53.842 27.6688C53.9459 27.4611 54 27.232 54 26.9998C54 26.7675 53.9459 26.5385 53.842 26.3308C53.738 26.1231 53.5871 25.9424 53.4012 25.8031L53.4214 25.8018ZM25.9774 26.5803L27.0152 25.5441L28.0516 26.5803L27.0166 27.6165L25.9774 26.5803ZM35.4006 15.2409L35.4329 15.2074C37.4896 13.0839 40.082 11.6262 43.1618 10.8571C42.3925 13.9336 40.9345 16.5268 38.8107 18.5831C38.7986 18.5939 38.7878 18.606 38.7771 18.6167C36.7203 20.7388 34.132 22.1965 31.0441 22.9656C31.8188 19.8892 33.2768 17.2946 35.4006 15.2396V15.2409ZM24.6255 12.7094C24.5799 9.75644 25.3814 6.88938 27.0152 4.1713C28.6491 6.88938 29.4506 9.75376 29.4036 12.7081V12.755C29.4519 15.708 28.6491 18.5724 27.0152 21.2918C25.3814 18.5737 24.5812 15.708 24.6255 12.755V12.7094ZM10.87 10.8571C13.9484 11.6249 16.5408 13.0826 18.5962 15.2074L18.6311 15.2409C20.7537 17.2959 22.213 19.8878 22.9796 22.967C19.9039 22.1978 17.3101 20.7401 15.2533 18.6154C15.2415 18.6048 15.2303 18.5936 15.2198 18.5818C13.0959 16.5255 11.6379 13.9336 10.87 10.8558V10.8571ZM12.7697 29.3803H12.7213C12.639 29.3803 12.5571 29.3803 12.4757 29.3803C9.60802 29.3803 6.8263 28.5749 4.18153 26.9897C6.8263 25.4018 9.60668 24.5991 12.473 24.5991C12.5562 24.5991 12.6394 24.5991 12.7213 24.5991H12.7697C12.8529 24.5991 12.9361 24.5991 13.018 24.5991C15.8843 24.5991 18.666 25.4045 21.3095 26.9897C18.6647 28.5776 15.883 29.3803 13.0167 29.3803C12.9335 29.3897 12.8516 29.3883 12.7697 29.3856V29.3803ZM18.6311 38.7519L18.5962 38.7855C16.5408 40.9076 13.9484 42.3653 10.87 43.1357C11.6366 40.0593 13.0959 37.466 15.2198 35.4084L15.2547 35.3748C17.3101 33.2527 19.9025 31.795 22.9809 31.0259C22.213 34.1091 20.7537 36.701 18.6311 38.7573V38.7519ZM29.4036 41.2834C29.4519 44.2364 28.6491 47.1021 27.0152 49.8215C25.3814 47.1021 24.5812 44.2391 24.6255 41.2834V41.2364C24.5799 38.2835 25.3814 35.4164 27.0152 32.697C28.6491 35.4164 29.4506 38.2808 29.4036 41.2364V41.2834ZM43.1604 43.1357C40.0834 42.3666 37.491 40.9089 35.4329 38.7868L35.4006 38.7519C33.2768 36.6956 31.8188 34.1037 31.0495 31.0259C34.1266 31.7937 36.7203 33.2513 38.7757 35.3748L38.8107 35.4084C40.9332 37.4714 42.3912 40.062 43.1604 43.1411V43.1357ZM41.5494 29.3843H41.3024H41.2541C41.1726 29.3843 41.0907 29.3843 41.0084 29.3843C38.1407 29.3843 35.3604 28.5789 32.7169 26.9937C35.3604 25.4058 38.1394 24.6032 41.007 24.6032C41.0903 24.6032 41.1722 24.6032 41.2541 24.6032H41.3037C41.387 24.6032 41.4689 24.6032 41.5521 24.6032C44.4184 24.6032 47.2001 25.4085 49.8435 26.9937C47.2041 28.5857 44.4238 29.3897 41.5548 29.3897L41.5494 29.3843Z" fill="#344E41"/>
<path id="Vector_2" d="M37.3001 94.6858C34.5787 95.0694 32.3091 96.1568 30.5524 97.9143L30.3239 98.1429C30.1693 98.2976 30.0265 98.4608 29.8832 98.6222C29.899 98.3524 29.9086 98.0831 29.907 97.8082C29.9439 95.264 29.1096 92.8328 27.4171 90.5908C27.3342 90.4804 27.2268 90.3908 27.1033 90.329C26.9798 90.2673 26.8436 90.2352 26.7056 90.2352C26.5675 90.2352 26.4314 90.2674 26.3079 90.3291C26.1844 90.3909 26.0769 90.4805 25.994 90.591C24.3056 92.8356 23.4674 95.2636 23.5038 97.81C23.4999 98.0815 23.5105 98.3508 23.5252 98.6217C23.3463 98.4202 23.1635 98.2216 22.9689 98.0325C21.1968 96.2065 18.8902 95.0811 16.1068 94.6902C15.9702 94.671 15.831 94.6837 15.7001 94.7275C15.5693 94.7713 15.4504 94.8449 15.3528 94.9425C15.2553 95.0401 15.1817 95.1591 15.1379 95.29C15.0942 95.4209 15.0814 95.5601 15.1006 95.6968C15.4931 98.4786 16.6174 100.788 18.442 102.561C18.631 102.756 18.8291 102.938 19.0305 103.118C18.7625 103.102 18.4927 103.092 18.2191 103.097C15.676 103.059 13.2468 103.895 11.0032 105.588C10.8929 105.671 10.8035 105.779 10.7418 105.902C10.6802 106.026 10.6481 106.162 10.6481 106.3C10.6481 106.438 10.6802 106.574 10.7418 106.698C10.8033 106.821 10.8928 106.929 11.003 107.012C13.2469 108.701 15.6737 109.539 18.2179 109.502C18.491 109.507 18.7618 109.496 19.0315 109.479C18.8701 109.623 18.7059 109.766 18.5519 109.92L18.3222 110.15C16.5661 111.907 15.4797 114.178 15.0968 116.9C15.0776 117.037 15.0903 117.176 15.1341 117.307C15.1778 117.438 15.2513 117.557 15.3489 117.654C15.4464 117.752 15.5653 117.825 15.6961 117.869C15.827 117.913 15.9662 117.926 16.1028 117.906C18.8237 117.522 21.0932 116.436 22.8504 114.678L22.9633 114.565C23.0017 114.527 23.0434 114.485 23.0762 114.452C23.2313 114.297 23.3736 114.133 23.5191 113.97C23.5028 114.241 23.4943 114.51 23.4954 114.784C23.4567 117.329 24.2927 119.76 25.9841 122.003C26.0607 122.104 26.1581 122.188 26.2697 122.249C26.3813 122.31 26.5046 122.346 26.6313 122.355C26.758 122.364 26.8852 122.346 27.0044 122.302C27.1236 122.258 27.2321 122.189 27.3225 122.1C27.3522 122.07 27.3795 122.038 27.4044 122.005C29.0939 119.76 29.9315 117.331 29.8957 114.787C29.9002 114.515 29.8884 114.244 29.8737 113.974C30.0532 114.176 30.2354 114.375 30.4306 114.564C32.2027 116.389 34.5087 117.515 37.2921 117.906C37.4288 117.925 37.5682 117.913 37.6992 117.869C37.8302 117.826 37.9492 117.752 38.0469 117.654C38.1445 117.557 38.218 117.438 38.2617 117.306C38.3053 117.175 38.3179 117.036 38.2983 116.899C37.9053 114.117 36.7821 111.808 34.958 110.035C34.769 109.84 34.5704 109.657 34.3685 109.479C34.6376 109.494 34.9062 109.505 35.1799 109.5C37.7224 109.537 40.1493 108.699 42.3946 107.008C42.4284 106.983 42.4603 106.956 42.49 106.926C42.5795 106.836 42.6486 106.727 42.6927 106.608C42.7368 106.488 42.7549 106.361 42.7457 106.234C42.7365 106.107 42.7003 105.984 42.6395 105.872C42.5787 105.761 42.4946 105.663 42.3931 105.587C40.1498 103.896 37.7219 103.059 35.1782 103.096C34.9051 103.092 34.6332 103.103 34.3646 103.12C34.5265 102.975 34.6902 102.833 34.8448 102.678L35.0705 102.452C36.8272 100.695 37.9142 98.4233 38.2982 95.7013C38.3178 95.5645 38.3052 95.4251 38.2616 95.2941C38.218 95.163 38.1445 95.0439 38.0469 94.9463C37.9492 94.8486 37.8302 94.775 37.6992 94.7314C37.5682 94.6878 37.4289 94.6753 37.2922 94.6949L37.3001 94.6858ZM26.0917 106.554L26.0924 105.682L26.9636 105.682L26.9641 106.553L26.0917 106.554ZM25.2863 97.8228L25.2857 97.7951C25.2577 96.0373 25.7347 94.3342 26.7059 92.7157C27.6757 94.3328 28.1529 96.0365 28.1245 97.7943C28.1239 97.8039 28.1245 97.8135 28.1245 97.8225C28.152 99.5798 27.6767 101.281 26.7021 102.903C25.7345 101.284 25.2568 99.5795 25.2857 97.8222L25.2863 97.8228ZM19.6931 101.289C18.4327 100.067 17.5644 98.5241 17.1087 96.6941C18.938 97.15 20.4789 98.0175 21.7009 99.2796L21.7206 99.2993C22.9822 100.521 23.8487 102.063 24.305 103.894C22.4758 103.438 20.9349 102.569 19.7123 101.309L19.6931 101.289ZM13.1326 106.295C14.7493 105.323 16.4517 104.846 18.2088 104.875L18.2375 104.875C19.9935 104.846 21.6963 105.323 23.3128 106.295C21.6967 107.265 19.9938 107.743 18.2361 107.714C18.2267 107.715 18.2173 107.715 18.2079 107.714C16.4508 107.742 14.7485 107.266 13.132 106.294L13.1326 106.295ZM21.717 113.285L21.6967 113.306C21.6621 113.34 21.6276 113.375 21.5934 113.409C20.3881 114.615 18.8803 115.446 17.1023 115.891C17.5465 114.112 18.3778 112.605 19.5826 111.4C19.6176 111.365 19.6526 111.33 19.687 111.295L19.7073 111.275C19.7423 111.24 19.7773 111.205 19.8117 111.17C21.0165 109.965 22.5243 109.134 24.3017 108.689C23.8575 110.469 23.0256 111.976 21.8208 113.181C21.7898 113.22 21.7548 113.254 21.7193 113.288L21.717 113.285ZM28.12 114.761L28.1194 114.79C28.1474 116.547 27.6705 118.25 26.7004 119.869C25.7295 118.252 25.2528 116.548 25.2807 114.79L25.2812 114.761C25.2532 113.004 25.7302 111.301 26.7008 109.683C27.674 111.303 28.1501 113.006 28.1222 114.764L28.12 114.761ZM33.7121 111.296C34.9736 112.517 35.8407 114.06 36.297 115.891C34.4672 115.434 32.9274 114.567 31.7037 113.305L31.6839 113.285C30.4235 112.063 29.5553 110.52 29.099 108.69C30.9288 109.146 32.4697 110.014 33.6923 111.276L33.7121 111.296ZM40.2731 106.29C38.6564 107.26 36.954 107.738 35.197 107.711L35.1687 107.71C33.4117 107.738 31.7094 107.261 30.0923 106.29C31.7084 105.319 33.4114 104.842 35.1679 104.87L35.1967 104.87C36.956 104.845 38.6578 105.321 40.2754 106.292L40.2731 106.29ZM33.8158 101.185L33.7119 101.289L33.6916 101.309C33.6574 101.343 33.623 101.378 33.5883 101.412C32.383 102.618 30.8758 103.449 29.0983 103.894C29.542 102.114 30.3727 100.608 31.5781 99.4022C31.6131 99.3672 31.6475 99.3328 31.6819 99.2983L31.7028 99.2774C31.7378 99.2424 31.7722 99.208 31.8072 99.173C33.012 97.9677 34.5198 97.1366 36.2972 96.6916C35.8569 98.4709 35.0262 99.9782 33.8203 101.185L33.8158 101.185Z" fill="#344E41"/>
<path id="Vector_3" d="M32.65 163.331C31.2893 163.523 30.1546 164.066 29.2762 164.945L29.162 165.06C29.0846 165.137 29.0133 165.218 28.9416 165.299C28.9495 165.164 28.9543 165.03 28.9535 164.892C28.9719 163.62 28.5548 162.404 27.7085 161.283C27.6671 161.228 27.6134 161.183 27.5516 161.153C27.4899 161.122 27.4218 161.106 27.3528 161.106C27.2838 161.106 27.2157 161.122 27.1539 161.153C27.0922 161.183 27.0385 161.228 26.997 161.284C26.1528 162.406 25.7337 163.62 25.7519 164.893C25.7499 165.029 25.7553 165.163 25.7626 165.299C25.6732 165.198 25.5818 165.099 25.4844 165.004C24.5984 164.091 23.4451 163.529 22.0534 163.333C21.9851 163.324 21.9155 163.33 21.8501 163.352C21.7846 163.374 21.7252 163.41 21.6764 163.459C21.6276 163.508 21.5909 163.568 21.569 163.633C21.5471 163.698 21.5407 163.768 21.5503 163.836C21.7465 165.227 22.3087 166.382 23.221 167.269C23.3155 167.366 23.4145 167.457 23.5152 167.547C23.3812 167.539 23.2464 167.534 23.1095 167.537C21.838 167.518 20.6234 167.935 19.5016 168.782C19.4465 168.824 19.4017 168.877 19.3709 168.939C19.3401 169.001 19.3241 169.069 19.3241 169.138C19.324 169.207 19.3401 169.275 19.3709 169.337C19.4017 169.399 19.4464 169.453 19.5015 169.494C20.6235 170.339 21.8368 170.758 23.1089 170.739C23.2455 170.741 23.3809 170.736 23.5158 170.727C23.4351 170.8 23.353 170.871 23.2759 170.948L23.1611 171.063C22.283 171.941 21.7398 173.077 21.5484 174.438C21.5388 174.506 21.5452 174.576 21.567 174.641C21.5889 174.707 21.6257 174.766 21.6744 174.815C21.7232 174.864 21.7827 174.901 21.8481 174.923C21.9135 174.944 21.9831 174.951 22.0514 174.941C23.4118 174.749 24.5466 174.206 25.4252 173.327L25.4816 173.27C25.5008 173.251 25.5217 173.23 25.5381 173.214C25.6157 173.136 25.6868 173.055 25.7596 172.973C25.7514 173.108 25.7471 173.243 25.7477 173.38C25.7284 174.653 26.1464 175.868 26.9921 176.99C27.0304 177.04 27.079 177.082 27.1348 177.113C27.1906 177.143 27.2523 177.161 27.3156 177.166C27.379 177.17 27.4426 177.161 27.5022 177.139C27.5618 177.117 27.616 177.083 27.6613 177.038C27.6761 177.023 27.6898 177.007 27.7022 176.99C28.547 175.868 28.9658 174.654 28.9478 173.381C28.9501 173.245 28.9442 173.11 28.9369 172.975C29.0266 173.076 29.1177 173.175 29.2153 173.27C30.1014 174.183 31.2544 174.746 32.6461 174.941C32.7144 174.951 32.7841 174.944 32.8496 174.923C32.9151 174.901 32.9746 174.864 33.0234 174.815C33.0722 174.766 33.109 174.707 33.1308 174.641C33.1527 174.576 33.1589 174.506 33.1491 174.438C32.9526 173.046 32.391 171.892 31.479 171.005C31.3845 170.908 31.2852 170.817 31.1842 170.727C31.3188 170.735 31.4531 170.741 31.5899 170.738C32.8612 170.757 34.0746 170.337 35.1973 169.492C35.2142 169.479 35.2302 169.466 35.245 169.451C35.2897 169.406 35.3243 169.352 35.3464 169.292C35.3684 169.232 35.3774 169.169 35.3729 169.105C35.3683 169.042 35.3502 168.98 35.3197 168.924C35.2893 168.868 35.2473 168.82 35.1965 168.781C34.0749 167.936 32.8609 167.518 31.5891 167.536C31.4526 167.534 31.3166 167.54 31.1823 167.548C31.2633 167.476 31.3451 167.404 31.4224 167.327L31.5353 167.214C32.4136 166.336 32.9571 165.2 33.1491 163.839C33.1589 163.77 33.1526 163.701 33.1308 163.635C33.109 163.57 33.0722 163.51 33.0234 163.461C32.9746 163.412 32.9151 163.376 32.8496 163.354C32.7841 163.332 32.7144 163.326 32.6461 163.335L32.65 163.331ZM27.0459 169.265L27.0462 168.829L27.4818 168.829L27.482 169.264L27.0459 169.265ZM26.6431 164.899L26.6429 164.886C26.6288 164.007 26.8673 163.155 27.3529 162.346C27.8378 163.154 28.0764 164.006 28.0622 164.885C28.062 164.89 28.0622 164.895 28.0622 164.899C28.076 165.778 27.8383 166.629 27.351 167.44C26.8673 166.63 26.6284 165.778 26.6429 164.899L26.6431 164.899ZM23.8465 166.633C23.2163 166.021 22.7822 165.25 22.5544 164.335C23.469 164.563 24.2394 164.997 24.8504 165.628L24.8603 165.638C25.4911 166.248 25.9244 167.019 26.1525 167.935C25.2379 167.707 24.4674 167.273 23.8561 166.642L23.8465 166.633ZM20.5663 169.135C21.3746 168.65 22.2258 168.411 23.1044 168.426L23.1188 168.425C23.9967 168.411 24.8482 168.649 25.6564 169.136C24.8484 169.621 23.9969 169.859 23.1181 169.845C23.1134 169.845 23.1087 169.845 23.104 169.845C22.2254 169.859 21.3743 169.621 20.566 169.135L20.5663 169.135ZM24.8585 172.631L24.8483 172.641C24.831 172.658 24.8138 172.675 24.7967 172.693C24.194 173.295 23.4401 173.711 22.5511 173.934C22.7733 173.044 23.1889 172.29 23.7913 171.688C23.8088 171.67 23.8263 171.653 23.8435 171.636L23.8537 171.625C23.8712 171.608 23.8887 171.59 23.9059 171.573C24.5083 170.971 25.2621 170.555 26.1509 170.332C25.9287 171.222 25.5128 171.976 24.9104 172.579C24.8949 172.598 24.8774 172.615 24.8596 172.632L24.8585 172.631ZM28.06 173.369L28.0597 173.383C28.0737 174.261 27.8352 175.113 27.3502 175.922C26.8647 175.114 26.6264 174.262 26.6403 173.383L26.6406 173.369C26.6266 172.49 26.8651 171.639 27.3504 170.83C27.837 171.639 28.075 172.491 28.0611 173.37L28.06 173.369ZM30.856 171.636C31.4868 172.247 31.9203 173.018 32.1485 173.933C31.2336 173.705 30.4637 173.271 29.8518 172.641L29.842 172.631C29.2118 172.019 28.7776 171.248 28.5495 170.333C29.4644 170.561 30.2348 170.995 30.8462 171.626L30.856 171.636ZM34.1366 169.133C33.3282 169.618 32.477 169.857 31.5985 169.843L31.5844 169.843C30.7058 169.857 29.8547 169.619 29.0462 169.133C29.8542 168.648 30.7057 168.409 31.5839 168.423L31.5983 168.423C32.478 168.41 33.3289 168.648 34.1377 169.134L34.1366 169.133ZM30.9079 166.58L30.856 166.632L30.8458 166.642C30.8287 166.66 30.8115 166.677 30.7942 166.694C30.1915 167.297 29.4379 167.712 28.5492 167.935C28.771 167.045 29.1864 166.292 29.7891 165.689C29.8065 165.672 29.8238 165.654 29.841 165.637L29.8514 165.627C29.8689 165.609 29.8861 165.592 29.9036 165.575C30.506 164.972 31.2599 164.556 32.1486 164.334C31.9285 165.224 31.5131 165.977 30.9101 166.58L30.9079 166.58Z" fill="#344E41"/>
</g>
</svg>
