<svg width="22" height="22" viewBox="0 0 22 22" fill="none" xmlns="http://www.w3.org/2000/svg">
<path id="Vector" d="M5.01117 9.29195C6.69117 12.5936 9.39784 15.2886 12.6995 16.9803L15.2662 14.4136C15.5812 14.0986 16.0478 13.9936 16.4562 14.1336C17.7628 14.5653 19.1745 14.7986 20.6212 14.7986C21.2628 14.7986 21.7878 15.3236 21.7878 15.9653V20.0369C21.7878 20.6786 21.2628 21.2036 20.6212 21.2036C9.66617 21.2036 0.787842 12.3253 0.787842 1.37028C0.787842 0.728613 1.31284 0.203613 1.95451 0.203613H6.03784C6.67951 0.203613 7.20451 0.728613 7.20451 1.37028C7.20451 2.82861 7.43784 4.22861 7.86951 5.53528C7.99784 5.94361 7.90451 6.39861 7.57784 6.72528L5.01117 9.29195Z" fill="white"/>
</svg>
